<?xml version="1.0" encoding="iso-8859-1"?>
<!-- Generator: Adobe Illustrator 16.0.0, SVG Export Plug-In . SVG Version: 6.00 Build 0)  -->
<!DOCTYPE svg PUBLIC "-//W3C//DTD SVG 1.1//EN" "http://www.w3.org/Graphics/SVG/1.1/DTD/svg11.dtd">
<svg version="1.1" id="Capa_1" xmlns="http://www.w3.org/2000/svg" xmlns:xlink="http://www.w3.org/1999/xlink" x="0px" y="0px"
	 width="972px" height="972px" viewBox="0 0 972 972" style="enable-background:new 0 0 972 972;" xml:space="preserve">
<g>
	<g>
		<path d="M962,865.407h-18.818V367.273c0-4.509-3.018-8.46-7.366-9.647L499.854,238.654c-4.35-1.187-7.366-5.138-7.366-9.647
			v-94.34c0-45.001-103.796-81.481-231.834-81.481S28.819,89.667,28.819,134.667v730.741H10c-5.523,0-10,4.478-10,10v33.405
			c0,5.523,4.477,10,10,10h952c5.523,0,10-4.477,10-10v-33.406C972,869.885,967.523,865.407,962,865.407z M108.107,749.948
			c0,4.487-2.995,8.405-7.312,9.63c-13.93,3.956-26.65,8.417-37.932,13.305c-6.626,2.87-14.025-1.932-14.025-9.152v-44.043
			c0-3.858,2.228-7.35,5.701-9.031c11.791-5.707,25.455-10.903,40.673-15.481c6.42-1.932,12.895,2.873,12.895,9.577V749.948z
			 M108.107,643.069c0,4.487-2.995,8.405-7.312,9.631c-13.93,3.956-26.65,8.417-37.932,13.305
			c-6.626,2.87-14.025-1.932-14.025-9.152v-44.042c0-3.858,2.228-7.35,5.701-9.031c11.791-5.707,25.455-10.903,40.673-15.481
			c6.42-1.932,12.895,2.873,12.895,9.576V643.069z M108.107,536.191c0,4.487-2.996,8.405-7.312,9.63
			c-13.93,3.956-26.65,8.417-37.932,13.305c-6.626,2.869-14.025-1.932-14.025-9.152v-44.042c0-3.858,2.228-7.351,5.701-9.031
			c11.791-5.707,25.455-10.904,40.673-15.481c6.42-1.932,12.895,2.871,12.895,9.576V536.191z M108.107,429.312
			c0,4.487-2.996,8.405-7.312,9.631c-13.93,3.956-26.65,8.417-37.932,13.304c-6.626,2.87-14.025-1.931-14.025-9.151v-44.043
			c0-3.858,2.228-7.351,5.701-9.031c11.791-5.707,25.455-10.904,40.673-15.482c6.42-1.931,12.895,2.873,12.895,9.577V429.312z
			 M108.107,322.435c0,4.487-2.995,8.405-7.312,9.631c-13.93,3.956-26.65,8.416-37.932,13.304
			c-6.626,2.87-14.025-1.931-14.025-9.152v-44.042c0-3.858,2.228-7.35,5.701-9.031c11.791-5.707,25.455-10.904,40.673-15.482
			c6.42-1.931,12.895,2.873,12.895,9.577V322.435z M108.107,215.556c0,4.487-2.996,8.405-7.312,9.63
			c-13.93,3.956-26.65,8.417-37.932,13.304c-6.626,2.87-14.025-1.931-14.025-9.152v-44.043c0-3.858,2.228-7.35,5.701-9.031
			c11.791-5.707,25.455-10.904,40.673-15.482c6.42-1.931,12.895,2.873,12.895,9.577V215.556z M248.021,730.091
			c0,5.405-4.302,9.823-9.705,9.988c-33.308,1.019-64.777,4.289-93.168,9.378c-6.139,1.102-11.778-3.6-11.778-9.837v-45.705
			c0-4.803,3.41-8.944,8.132-9.825c29.165-5.439,61.698-8.944,96.215-10.027c5.638-0.177,10.305,4.361,10.305,10.001
			L248.021,730.091L248.021,730.091z M248.021,623.213c0,5.405-4.302,9.823-9.705,9.988c-33.307,1.019-64.777,4.289-93.168,9.379
			c-6.139,1.102-11.778-3.6-11.778-9.837v-45.706c0-4.803,3.41-8.944,8.132-9.825c29.165-5.44,61.698-8.944,96.215-10.027
			c5.638-0.177,10.305,4.361,10.305,10.001L248.021,623.213L248.021,623.213z M248.021,516.333c0,5.406-4.302,9.824-9.705,9.989
			c-33.308,1.018-64.777,4.288-93.168,9.378c-6.139,1.102-11.778-3.6-11.778-9.837v-45.706c0-4.803,3.41-8.944,8.132-9.826
			c29.165-5.438,61.698-8.942,96.215-10.026c5.638-0.177,10.305,4.36,10.305,10.001L248.021,516.333L248.021,516.333z
			 M248.021,409.455c0,5.406-4.302,9.824-9.705,9.989c-33.308,1.019-64.777,4.289-93.168,9.378
			c-6.139,1.102-11.778-3.6-11.778-9.837v-45.706c0-4.803,3.41-8.944,8.132-9.826c29.165-5.438,61.698-8.944,96.215-10.027
			c5.637-0.177,10.305,4.361,10.305,10.001L248.021,409.455L248.021,409.455z M248.021,302.577c0,5.406-4.302,9.824-9.705,9.989
			c-33.308,1.018-64.777,4.289-93.168,9.378c-6.139,1.1-11.778-3.6-11.778-9.837v-45.705c0-4.803,3.41-8.945,8.132-9.826
			c29.165-5.44,61.698-8.944,96.215-10.027c5.638-0.177,10.305,4.361,10.305,10.001L248.021,302.577L248.021,302.577z
			 M248.021,195.698c0,5.406-4.302,9.824-9.705,9.989c-33.308,1.017-64.777,4.288-93.168,9.378
			c-6.139,1.101-11.778-3.6-11.778-9.837v-45.705c0-4.803,3.41-8.945,8.132-9.826c29.165-5.439,61.698-8.943,96.215-10.027
			c5.638-0.177,10.305,4.361,10.305,10.001L248.021,195.698L248.021,195.698z M413.197,170.36c0-6.705,6.474-11.509,12.895-9.577
			c15.218,4.578,28.882,9.775,40.673,15.482c3.474,1.681,5.701,5.172,5.701,9.031v44.042c0,7.221-7.398,12.022-14.024,9.152
			c-11.282-4.888-24.002-9.349-37.933-13.304c-4.315-1.226-7.312-5.144-7.312-9.63V170.36L413.197,170.36z M387.935,739.621
			c0,6.237-5.639,10.938-11.777,9.837c-28.392-5.09-59.861-8.36-93.168-9.378c-5.403-0.165-9.705-4.583-9.705-9.988v-46.026
			c0-5.641,4.667-10.178,10.305-10.001c34.518,1.083,67.05,4.587,96.215,10.027c4.723,0.881,8.132,5.021,8.132,9.825
			L387.935,739.621L387.935,739.621z M387.935,632.743c0,6.237-5.639,10.938-11.777,9.837c-28.393-5.09-59.861-8.36-93.168-9.379
			c-5.403-0.165-9.705-4.583-9.705-9.989v-46.025c0-5.641,4.667-10.178,10.305-10.001c34.518,1.083,67.05,4.587,96.215,10.026
			c4.723,0.882,8.132,5.022,8.132,9.826L387.935,632.743L387.935,632.743z M387.935,525.864c0,6.237-5.639,10.938-11.777,9.837
			c-28.393-5.09-59.861-8.36-93.168-9.378c-5.403-0.165-9.705-4.583-9.705-9.988v-46.026c0-5.642,4.667-10.178,10.305-10.001
			c34.518,1.083,67.05,4.587,96.215,10.027c4.723,0.881,8.132,5.021,8.132,9.825L387.935,525.864L387.935,525.864z M387.935,418.985
			c0,6.237-5.639,10.938-11.777,9.837c-28.392-5.09-59.861-8.36-93.168-9.378c-5.403-0.165-9.705-4.583-9.705-9.989V363.43
			c0-5.641,4.667-10.178,10.305-10.001c34.518,1.083,67.05,4.588,96.215,10.026c4.723,0.882,8.132,5.022,8.132,9.826
			L387.935,418.985L387.935,418.985z M387.935,312.107c0,6.237-5.639,10.937-11.777,9.837c-28.392-5.09-59.861-8.361-93.168-9.378
			c-5.403-0.165-9.705-4.583-9.705-9.989v-46.026c0-5.64,4.667-10.178,10.305-10.001c34.518,1.083,67.05,4.587,96.215,10.027
			c4.723,0.881,8.132,5.022,8.132,9.826L387.935,312.107L387.935,312.107z M387.935,205.229c0,6.237-5.639,10.938-11.777,9.837
			c-28.392-5.09-59.861-8.361-93.168-9.378c-5.403-0.165-9.705-4.583-9.705-9.989v-46.026c0-5.641,4.667-10.178,10.305-10.001
			c34.518,1.083,67.05,4.587,96.215,10.027c4.723,0.881,8.132,5.022,8.132,9.826L387.935,205.229L387.935,205.229z M413.197,322.435
			v-45.195c0-6.705,6.474-11.509,12.895-9.577c15.218,4.578,28.882,9.775,40.673,15.482c3.474,1.681,5.701,5.172,5.701,9.031v44.042
			c0,7.221-7.398,12.022-14.024,9.152c-11.282-4.888-24.002-9.348-37.933-13.304C416.192,330.839,413.197,326.92,413.197,322.435z
			 M737.141,865.407h-154v-92.291c0-5.522,4.478-10,10-10h134c5.523,0,10,4.478,10,10V865.407z M895.185,689.928
			c0,5.522-4.477,10-10,10H456.707c-5.523,0-10-4.478-10-10V651.35c0-5.523,4.477-10,10-10h428.478c5.523,0,10,4.477,10,10V689.928z
			 M895.185,590.933c0,5.522-4.477,10-10,10H456.707c-5.523,0-10-4.478-10-10v-38.579c0-5.523,4.477-10,10-10h428.478
			c5.523,0,10,4.477,10,10V590.933z M895.185,491.938c0,5.523-4.477,10-10,10H456.707c-5.523,0-10-4.477-10-10v-38.579
			c0-5.522,4.477-10,10-10h428.478c5.523,0,10,4.478,10,10V491.938z"/>
	</g>
</g>
<g>
</g>
<g>
</g>
<g>
</g>
<g>
</g>
<g>
</g>
<g>
</g>
<g>
</g>
<g>
</g>
<g>
</g>
<g>
</g>
<g>
</g>
<g>
</g>
<g>
</g>
<g>
</g>
<g>
</g>
</svg>
